<?xml version="1.0" standalone="no"?>
<!DOCTYPE svg PUBLIC "-//W3C//DTD SVG 20010904//EN"
 "http://www.w3.org/TR/2001/REC-SVG-20010904/DTD/svg10.dtd">
<svg version="1.0" xmlns="http://www.w3.org/2000/svg"
 width="225.000000pt" height="225.000000pt" viewBox="0 0 225.000000 225.000000"
 preserveAspectRatio="xMidYMid meet">

<g transform="translate(0.000000,225.000000) scale(0.100000,-0.100000)"
fill="#000000" stroke="none">
<path d="M1285 2235 c-22 -8 -40 -15 -41 -15 0 0 -217 -220 -481 -489 -522
-530 -521 -529 -559 -681 -22 -86 -14 -240 16 -325 35 -100 83 -160 329 -406
259 -259 281 -275 421 -305 144 -31 309 1 424 80 70 48 313 306 332 352 31 74
-8 169 -87 210 -37 19 -102 18 -142 -2 -18 -9 -95 -79 -172 -155 -96 -93 -150
-140 -170 -144 -17 -3 -39 -8 -49 -10 -11 -2 -40 0 -66 6 -43 9 -63 27 -263
227 -138 139 -222 230 -231 254 -20 47 -20 118 -1 164 16 39 404 447 446 469
41 22 100 28 148 15 34 -9 72 -39 192 -153 82 -78 164 -148 182 -156 119 -50
253 76 218 205 -15 56 -303 351 -380 389 l-53 26 91 93 c92 95 121 141 121
196 0 71 -55 139 -128 160 -46 12 -48 12 -97 -5z m106 -104 c16 -16 29 -39 29
-50 0 -24 -69 -108 -174 -211 -98 -96 -101 -127 -13 -154 79 -24 139 -71 278
-217 111 -118 132 -145 132 -171 0 -21 -8 -39 -27 -55 -51 -43 -46 -47 -296
193 -101 97 -159 121 -264 110 -102 -10 -126 -29 -363 -275 -243 -252 -253
-267 -253 -386 0 -69 13 -114 46 -164 12 -18 116 -128 231 -244 235 -237 254
-250 368 -251 112 -1 131 10 302 175 167 160 180 168 229 126 53 -46 42 -69
-102 -221 -71 -76 -149 -150 -173 -166 -101 -68 -227 -92 -349 -66 -122 25
-153 49 -403 303 -185 190 -234 245 -259 296 -75 154 -62 347 33 479 17 25
239 255 492 512 345 349 466 466 483 466 13 0 37 -13 53 -29z"/>
<path d="M945 1066 c-109 -49 -128 -194 -36 -281 l32 -30 514 0 514 0 35 34
c81 79 73 198 -18 265 -27 20 -40 21 -519 23 -395 2 -498 0 -522 -11z m1000
-101 c30 -30 32 -64 4 -99 l-20 -26 -474 0 -474 0 -20 26 c-28 35 -26 69 4 99
l24 25 466 0 466 0 24 -25z"/>
</g>
</svg>
